<mxfile host="65bd71144e">
    <diagram id="M3_72ie4rDMov3f6Uv0h" name="Page-1">
        <mxGraphModel dx="744" dy="571" grid="1" gridSize="10" guides="1" tooltips="1" connect="1" arrows="1" fold="1" page="1" pageScale="1" pageWidth="850" pageHeight="1100" math="0" shadow="0">
            <root>
                <mxCell id="0"/>
                <mxCell id="1" parent="0"/>
                <mxCell id="20" value="" style="rounded=0;whiteSpace=wrap;html=1;fillColor=#FFFFFF;" vertex="1" parent="1">
                    <mxGeometry width="850" height="500" as="geometry"/>
                </mxCell>
                <mxCell id="2" value="&lt;font color=&quot;#ff0000&quot;&gt;&lt;b&gt;&lt;font style=&quot;font-size: 14px&quot;&gt;role&lt;/font&gt;&lt;/b&gt;&lt;br&gt;&lt;/font&gt;&lt;b&gt;name TEXT PK&lt;/b&gt;" style="rounded=0;whiteSpace=wrap;html=1;fillColor=#FFFFFF;fontColor=#000000;strokeColor=#000000;strokeWidth=2;" vertex="1" parent="1">
                    <mxGeometry x="395" y="420" width="120" height="60" as="geometry"/>
                </mxCell>
                <mxCell id="3" value="&lt;b style=&quot;font-size: 14px&quot;&gt;&lt;font color=&quot;#6600cc&quot;&gt;course_role&lt;br&gt;&lt;/font&gt;&lt;/b&gt;&lt;b&gt;name TEXT PK&lt;/b&gt;" style="rounded=0;whiteSpace=wrap;html=1;fillColor=#FFFFFF;fontColor=#000000;strokeColor=#000000;strokeWidth=2;" vertex="1" parent="1">
                    <mxGeometry x="640" y="80" width="120" height="60" as="geometry"/>
                </mxCell>
                <mxCell id="4" value="&lt;font color=&quot;#cc0066&quot;&gt;&lt;b&gt;&lt;font style=&quot;font-size: 14px&quot;&gt;submission_status&lt;/font&gt;&lt;/b&gt;&lt;br&gt;&lt;/font&gt;&lt;b&gt;name TEXT PK&lt;/b&gt;" style="rounded=0;whiteSpace=wrap;html=1;fillColor=#FFFFFF;fontColor=#000000;strokeColor=#000000;strokeWidth=2;" vertex="1" parent="1">
                    <mxGeometry x="80" y="420" width="140" height="60" as="geometry"/>
                </mxCell>
                <mxCell id="5" value="&lt;font color=&quot;#007fff&quot;&gt;&lt;b&gt;&lt;font style=&quot;font-size: 14px&quot;&gt;users&lt;/font&gt;&lt;/b&gt;&lt;br&gt;&lt;/font&gt;&lt;b&gt;email TEXT PK&lt;/b&gt;&lt;br&gt;name TEXT NOT NULL&lt;br&gt;avatar_url TEXT&lt;br&gt;refresh_token TEXT&lt;br&gt;github_access_token TEXT&lt;br&gt;&lt;font color=&quot;#ff0000&quot;&gt;&lt;b&gt;role_name TEXT NOT NULL&lt;/b&gt;&lt;/font&gt;" style="rounded=0;whiteSpace=wrap;html=1;fillColor=#FFFFFF;fontColor=#000000;strokeColor=#000000;strokeWidth=2;" vertex="1" parent="1">
                    <mxGeometry x="360" y="245" width="190" height="120" as="geometry"/>
                </mxCell>
                <mxCell id="6" value="&lt;b&gt;&lt;font color=&quot;#00cc66&quot;&gt;&lt;font style=&quot;font-size: 14px&quot;&gt;course&lt;/font&gt;&lt;br&gt;&lt;/font&gt;id uuid PK&lt;/b&gt;&lt;br&gt;name TEXT NOT NULL&lt;br&gt;description TEXT&lt;br&gt;github_name TEXT NOT NULL&lt;br&gt;&lt;b&gt;&lt;font color=&quot;#007fff&quot;&gt;creator_email TEXT NOT NULL&lt;/font&gt;&lt;/b&gt;&lt;br&gt;created_on DATE NOT NULL&lt;br&gt;last_edited_on DATE NOT NULL" style="rounded=0;whiteSpace=wrap;html=1;fillColor=#FFFFFF;fontColor=#000000;strokeWidth=2;strokeColor=#000000;" vertex="1" parent="1">
                    <mxGeometry x="350" y="20" width="210" height="140" as="geometry"/>
                </mxCell>
                <mxCell id="7" value="&lt;b style=&quot;font-size: 14px&quot;&gt;&lt;font color=&quot;#ff8000&quot;&gt;assignment&lt;br&gt;&lt;/font&gt;&lt;/b&gt;&lt;b&gt;id uuid PK&lt;/b&gt;&lt;br&gt;name TEXT NOT NULL&lt;br&gt;description TEXT&lt;br&gt;&lt;b&gt;&lt;font color=&quot;#007fff&quot;&gt;author_email TEXT NOT NULL&lt;br&gt;&lt;/font&gt;&lt;font color=&quot;#00cc66&quot;&gt;course_id uuid NOT NULL&lt;/font&gt;&lt;br&gt;&lt;/b&gt;github_name TEXT NOT NULL&lt;br&gt;created_on DATE NOT NULL&lt;br&gt;last_edited_on DATE NOT NULL" style="rounded=0;whiteSpace=wrap;html=1;fillColor=#FFFFFF;fontColor=#000000;strokeWidth=2;strokeColor=#000000;" vertex="1" parent="1">
                    <mxGeometry x="45" y="15" width="210" height="150" as="geometry"/>
                </mxCell>
                <mxCell id="8" value="&lt;b&gt;&lt;font style=&quot;font-size: 14px&quot;&gt;submission&lt;/font&gt;&lt;br&gt;id uuid PK&lt;br&gt;&lt;/b&gt;result TEXT&lt;br&gt;&lt;b&gt;&lt;font color=&quot;#cc0066&quot;&gt;submission_status_name TEXT NOT NULL&lt;br&gt;&lt;/font&gt;&lt;font color=&quot;#007fff&quot;&gt;submitter_email TEXT NOT NULL&lt;br&gt;&lt;/font&gt;&lt;font color=&quot;#ff8000&quot;&gt;assignment_id uuid&lt;/font&gt;&lt;/b&gt;" style="rounded=0;whiteSpace=wrap;html=1;fillColor=#FFFFFF;fontColor=#000000;strokeColor=#000000;strokeWidth=2;" vertex="1" parent="1">
                    <mxGeometry x="20" y="250" width="260" height="110" as="geometry"/>
                </mxCell>
                <mxCell id="9" value="&lt;b style=&quot;font-size: 14px&quot;&gt;user_course&lt;br&gt;&lt;/b&gt;&lt;font color=&quot;#007fff&quot; style=&quot;font-weight: bold&quot;&gt;user_email TEXT PK&lt;br&gt;&lt;/font&gt;&lt;b&gt;&lt;font color=&quot;#00cc66&quot;&gt;course_id uuid PK&lt;br&gt;&lt;/font&gt;&lt;font color=&quot;#6600cc&quot;&gt;course_role_name TEXT&lt;/font&gt;&lt;/b&gt;" style="rounded=0;whiteSpace=wrap;html=1;fillColor=#FFFFFF;fontColor=#000000;strokeColor=#000000;strokeWidth=2;" vertex="1" parent="1">
                    <mxGeometry x="610" y="190" width="180" height="90" as="geometry"/>
                </mxCell>
                <mxCell id="10" value="" style="endArrow=classic;html=1;fontColor=#FF0000;exitX=0.5;exitY=1;exitDx=0;exitDy=0;entryX=0.5;entryY=0;entryDx=0;entryDy=0;strokeColor=#FF0000;jumpSize=6;strokeWidth=2;" edge="1" parent="1" source="5" target="2">
                    <mxGeometry width="50" height="50" relative="1" as="geometry">
                        <mxPoint x="430" y="455" as="sourcePoint"/>
                        <mxPoint x="480" y="405" as="targetPoint"/>
                    </mxGeometry>
                </mxCell>
                <mxCell id="11" value="" style="endArrow=classic;html=1;fontColor=#FF0000;exitX=0.5;exitY=1;exitDx=0;exitDy=0;entryX=0.5;entryY=0;entryDx=0;entryDy=0;strokeColor=#007FFF;strokeWidth=2;" edge="1" parent="1" source="6" target="5">
                    <mxGeometry width="50" height="50" relative="1" as="geometry">
                        <mxPoint x="675" y="545" as="sourcePoint"/>
                        <mxPoint x="675" y="595" as="targetPoint"/>
                    </mxGeometry>
                </mxCell>
                <mxCell id="12" value="" style="endArrow=classic;html=1;fontColor=#FF0000;exitX=1;exitY=1;exitDx=0;exitDy=0;entryX=0;entryY=0;entryDx=0;entryDy=0;strokeColor=#007FFF;strokeWidth=2;" edge="1" parent="1" source="7" target="5">
                    <mxGeometry width="50" height="50" relative="1" as="geometry">
                        <mxPoint x="480" y="255" as="sourcePoint"/>
                        <mxPoint x="480" y="315" as="targetPoint"/>
                    </mxGeometry>
                </mxCell>
                <mxCell id="13" value="" style="endArrow=classic;html=1;fontColor=#FF0000;exitX=1;exitY=0.5;exitDx=0;exitDy=0;entryX=0;entryY=0.5;entryDx=0;entryDy=0;strokeColor=#00CC66;strokeWidth=2;" edge="1" parent="1" source="7" target="6">
                    <mxGeometry width="50" height="50" relative="1" as="geometry">
                        <mxPoint x="570" y="35" as="sourcePoint"/>
                        <mxPoint x="715" y="255" as="targetPoint"/>
                    </mxGeometry>
                </mxCell>
                <mxCell id="14" value="" style="endArrow=classic;html=1;fontColor=#FF0000;exitX=0.5;exitY=0;exitDx=0;exitDy=0;entryX=0.5;entryY=1;entryDx=0;entryDy=0;strokeColor=#FF8000;strokeWidth=2;" edge="1" parent="1" source="8" target="7">
                    <mxGeometry width="50" height="50" relative="1" as="geometry">
                        <mxPoint x="400" y="175" as="sourcePoint"/>
                        <mxPoint x="545" y="395" as="targetPoint"/>
                    </mxGeometry>
                </mxCell>
                <mxCell id="15" value="" style="endArrow=classic;html=1;fontColor=#FF0000;exitX=1;exitY=0.5;exitDx=0;exitDy=0;entryX=0;entryY=0.5;entryDx=0;entryDy=0;strokeColor=#007FFF;strokeWidth=2;" edge="1" parent="1" source="8" target="5">
                    <mxGeometry width="50" height="50" relative="1" as="geometry">
                        <mxPoint x="399" y="175" as="sourcePoint"/>
                        <mxPoint x="544" y="395" as="targetPoint"/>
                    </mxGeometry>
                </mxCell>
                <mxCell id="16" value="" style="endArrow=classic;html=1;fontColor=#FF0000;entryX=0.5;entryY=0;entryDx=0;entryDy=0;strokeColor=#CC0066;strokeWidth=2;exitX=0.5;exitY=1;exitDx=0;exitDy=0;" edge="1" parent="1" source="8" target="4">
                    <mxGeometry width="50" height="50" relative="1" as="geometry">
                        <mxPoint x="90" y="430" as="sourcePoint"/>
                        <mxPoint x="320" y="175" as="targetPoint"/>
                    </mxGeometry>
                </mxCell>
                <mxCell id="17" value="" style="endArrow=classic;html=1;fontColor=#FF0000;exitX=0;exitY=1;exitDx=0;exitDy=0;entryX=1;entryY=0.5;entryDx=0;entryDy=0;strokeColor=#007FFF;strokeWidth=2;" edge="1" parent="1" source="9" target="5">
                    <mxGeometry width="50" height="50" relative="1" as="geometry">
                        <mxPoint x="465" y="170" as="sourcePoint"/>
                        <mxPoint x="465" y="255" as="targetPoint"/>
                    </mxGeometry>
                </mxCell>
                <mxCell id="18" value="" style="endArrow=classic;html=1;fontColor=#FF0000;exitX=0;exitY=0;exitDx=0;exitDy=0;entryX=1;entryY=1;entryDx=0;entryDy=0;strokeColor=#00CC66;strokeWidth=2;" edge="1" parent="1" source="9" target="6">
                    <mxGeometry width="50" height="50" relative="1" as="geometry">
                        <mxPoint x="590" y="140" as="sourcePoint"/>
                        <mxPoint x="685" y="140" as="targetPoint"/>
                    </mxGeometry>
                </mxCell>
                <mxCell id="19" value="" style="endArrow=classic;html=1;fontColor=#FF0000;exitX=0.5;exitY=0;exitDx=0;exitDy=0;entryX=0.5;entryY=1;entryDx=0;entryDy=0;strokeColor=#6600CC;strokeWidth=2;" edge="1" parent="1" source="9" target="3">
                    <mxGeometry width="50" height="50" relative="1" as="geometry">
                        <mxPoint x="620" y="169" as="sourcePoint"/>
                        <mxPoint x="570" y="139" as="targetPoint"/>
                    </mxGeometry>
                </mxCell>
            </root>
        </mxGraphModel>
    </diagram>
</mxfile>